<?xml version="1.0" standalone="no"?>
<!DOCTYPE svg PUBLIC "-//W3C//DTD SVG 20010904//EN"
 "http://www.w3.org/TR/2001/REC-SVG-20010904/DTD/svg10.dtd">
<svg version="1.0" xmlns="http://www.w3.org/2000/svg"
 width="48.000000pt" height="48.000000pt" viewBox="0 0 48.000000 48.000000"
 preserveAspectRatio="xMidYMid meet">

<g transform="translate(0.000000,48.000000) scale(0.100000,-0.100000)"
fill="#000000" stroke="none">
<path d="M40 465 c-10 -13 -10 -19 4 -34 9 -10 14 -25 10 -35 -8 -20 9 -21 26
-1 10 13 10 19 -4 34 -9 10 -14 25 -10 35 8 20 -9 21 -26 1z"/>
<path d="M160 465 c-10 -13 -10 -19 5 -35 17 -19 17 -21 0 -40 -15 -16 -15
-22 -5 -35 17 -20 34 -19 26 1 -4 10 1 25 10 35 16 18 16 20 0 38 -9 10 -14
25 -10 35 8 20 -9 21 -26 1z"/>
<path d="M280 465 c-10 -13 -10 -19 4 -34 9 -10 14 -25 10 -35 -8 -20 9 -21
26 -1 10 13 10 19 -4 34 -9 10 -14 25 -10 35 8 20 -9 21 -26 1z"/>
<path d="M139 298 l-77 -20 -31 -70 c-20 -47 -31 -87 -31 -118 l0 -47 56 -22
c47 -18 77 -21 195 -21 77 0 160 5 185 11 l44 11 0 46 c0 26 -7 66 -16 89
l-17 43 -63 0 c-60 0 -64 1 -64 23 0 22 -77 98 -97 96 -4 -1 -42 -10 -84 -21z
m124 -29 c27 -22 37 -38 37 -60 l0 -29 69 0 c70 0 81 -6 81 -45 0 -24 -62 -35
-201 -35 -121 0 -144 3 -183 21 l-44 22 25 56 c14 31 26 58 28 59 3 3 126 38
145 41 3 1 22 -13 43 -30z m-193 -169 c33 -17 59 -20 175 -20 128 0 135 -1
135 -20 0 -11 5 -20 10 -20 6 0 10 11 10 25 0 14 3 25 8 25 4 0 17 3 30 6 22
6 23 4 20 -27 -4 -43 -17 -47 -195 -48 -137 -1 -143 0 -143 19 0 11 -4 20 -10
20 -5 0 -10 -7 -10 -15 0 -18 -4 -18 -47 -3 -28 10 -33 17 -33 45 0 18 2 33 5
33 3 0 23 -9 45 -20z"/>
<path d="M103 223 c-13 -2 -23 -7 -23 -11 0 -4 -3 -16 -6 -28 -4 -17 1 -22 36
-33 23 -7 43 -11 44 -9 1 2 7 11 14 20 11 14 10 21 -3 42 -17 26 -21 27 -62
19z m47 -32 c13 -26 -1 -34 -35 -21 -23 9 -25 13 -15 25 17 21 37 19 50 -4z"/>
</g>
</svg>
