<?xml version="1.0" standalone="no"?>
<!DOCTYPE svg PUBLIC "-//W3C//DTD SVG 20010904//EN"
 "http://www.w3.org/TR/2001/REC-SVG-20010904/DTD/svg10.dtd">
<svg version="1.0" xmlns="http://www.w3.org/2000/svg"
 width="48.000000pt" height="48.000000pt" viewBox="0 0 48.000000 48.000000"
 preserveAspectRatio="xMidYMid meet">

<g transform="translate(0.000000,48.000000) scale(0.100000,-0.100000)"
fill="#000000" stroke="none">
<path d="M102 444 c-9 -32 -6 -59 29 -203 l39 -166 -25 -20 c-14 -12 -25 -28
-25 -38 0 -15 12 -17 100 -17 88 0 100 2 100 17 0 10 -11 26 -25 38 l-25 20
26 109 c20 81 29 105 36 92 13 -23 23 -20 36 9 20 44 15 121 -10 160 l-23 35
-111 0 -111 0 -11 -36z m242 -9 c18 -27 22 -130 6 -140 -12 -7 -36 40 -45 88
-6 29 -12 37 -29 37 -12 0 -27 -5 -34 -12 -9 -9 -15 -9 -24 0 -7 7 -33 12 -59
12 -42 0 -47 2 -42 20 5 18 14 20 108 20 98 0 103 -1 119 -25z m-132 -52 c17
-15 19 -15 38 2 24 22 32 16 45 -38 9 -35 7 -60 -15 -152 l-26 -110 -34 0 -34
0 -23 95 c-12 52 -29 123 -37 158 l-14 62 41 0 c24 0 48 -7 59 -17z m69 -343
l24 -19 -85 0 -85 0 24 19 c14 12 38 20 61 20 23 0 47 -8 61 -20z"/>
<path d="M174 319 c-10 -17 13 -36 27 -22 12 12 4 33 -11 33 -5 0 -12 -5 -16
-11z"/>
<path d="M234 279 c-10 -17 13 -36 27 -22 12 12 4 33 -11 33 -5 0 -12 -5 -16
-11z"/>
<path d="M184 229 c-10 -17 13 -36 27 -22 12 12 4 33 -11 33 -5 0 -12 -5 -16
-11z"/>
<path d="M326 203 c-17 -35 -17 -37 3 -57 l21 -20 21 20 c20 20 20 22 3 57
-10 21 -21 37 -24 37 -3 0 -14 -16 -24 -37z m37 -18 c7 -16 -8 -29 -23 -20
-10 6 -2 35 10 35 4 0 10 -7 13 -15z"/>
</g>
</svg>
