<?xml version="1.0" standalone="no"?>
<!DOCTYPE svg PUBLIC "-//W3C//DTD SVG 20010904//EN"
 "http://www.w3.org/TR/2001/REC-SVG-20010904/DTD/svg10.dtd">
<svg version="1.0" xmlns="http://www.w3.org/2000/svg"
 width="48.000000pt" height="48.000000pt" viewBox="0 0 48.000000 48.000000"
 preserveAspectRatio="xMidYMid meet">

<g transform="translate(0.000000,48.000000) scale(0.100000,-0.100000)"
fill="#000000" stroke="none">
<path d="M180 461 c0 -11 -6 -22 -12 -24 -10 -4 -10 -8 0 -15 11 -8 10 -17 -8
-52 -17 -32 -20 -53 -16 -84 7 -46 7 -40 0 -155 -8 -122 -1 -131 96 -131 97 0
104 9 96 131 -7 115 -7 109 0 155 4 31 1 52 -16 84 -18 35 -19 44 -8 52 10 7
10 11 1 15 -7 2 -13 13 -13 24 0 17 -8 19 -60 19 -52 0 -60 -2 -60 -19z m100
-11 c0 -5 -18 -10 -40 -10 -22 0 -40 5 -40 10 0 6 18 10 40 10 22 0 40 -4 40
-10z m13 -65 c9 -20 17 -38 17 -40 0 -3 -31 -5 -70 -5 -38 0 -70 2 -70 5 0 2
8 20 17 40 15 31 21 35 53 35 32 0 38 -4 53 -35z m27 -85 c0 -18 -7 -20 -80
-20 -73 0 -80 2 -80 20 0 18 7 20 80 20 73 0 80 -2 80 -20z m-13 -70 l0 -30
-67 0 -67 0 0 30 0 30 67 0 67 0 0 -30z m13 -70 c0 -18 -7 -20 -80 -20 -73 0
-80 2 -80 20 0 18 7 20 80 20 73 0 80 -2 80 -20z m0 -60 c0 -18 -7 -20 -80
-20 -73 0 -80 2 -80 20 0 18 7 20 80 20 73 0 80 -2 80 -20z m-2 -57 c-3 -15
-15 -18 -78 -18 -63 0 -75 3 -78 18 -3 15 6 17 78 17 72 0 81 -2 78 -17z"/>
</g>
</svg>
